<?xml version="1.0" standalone="no"?><!DOCTYPE svg PUBLIC "-//W3C//DTD SVG 1.1//EN"
        "http://www.w3.org/Graphics/SVG/1.1/DTD/svg11.dtd">
<svg t="1575341869119" class="icon" viewBox="0 0 1024 1024" version="1.1" xmlns="http://www.w3.org/2000/svg" p-id="5627"
     width="300" height="300" xmlns:xlink="http://www.w3.org/1999/xlink">
    <defs>
        <style type="text/css"></style>
    </defs>
    <path d="M512 512m-448 0a448 448 0 1 0 896 0 448 448 0 1 0-896 0Z" fill="#55A7F7" p-id="5628"
          data-spm-anchor-id="a313x.7781069.0.i6" class="selected"></path>
    <path d="M439.676 386.467c-0.01-16.887 11.047-31.786 27.212-36.665l207.413-40.084c24.755-7.56 49.699 10.773 49.699 36.476l-68.03 340.194c0.083 14.184-6.542 29.074-18.967 41.479-16.966 16.937-42.167 26.667-66.11 25.525-23.944-1.142-42.993-12.983-49.97-31.062-6.98-18.079-0.828-39.65 16.137-56.587 16.966-16.937 42.167-26.667 66.11-25.525 11.829 0.564 22.462 3.74 31.036 8.988l53.559-261.432c0-4.914-4.158-8.127-8.126-8.127-0.756 0-1.512 0.189-2.268 0.378L475.77 420.298c-3.59 0.945-5.858 4.158-5.858 7.749l-68.03 293.432h-0.012c-0.094 14.011-6.707 28.668-18.965 40.906-16.965 16.936-42.165 26.666-66.109 25.525-23.943-1.142-42.991-12.982-49.97-31.06-6.978-18.08-0.826-39.65 16.14-56.586 16.965-16.937 42.165-26.667 66.108-25.525 11.523 0.55 21.912 3.577 30.368 8.585l60.234-296.857z"
          fill="#438CD3" p-id="5629" data-spm-anchor-id="a313x.7781069.0.i5" class="selected"></path>
    <path d="M423.676 370.467c-0.01-16.887 11.047-31.786 27.212-36.665l207.413-40.084c24.755-7.56 49.699 10.773 49.699 36.476l-68.03 340.194c0.083 14.184-6.542 29.074-18.967 41.479-16.966 16.937-42.167 26.667-66.11 25.525-23.944-1.142-42.993-12.983-49.97-31.062-6.98-18.079-0.828-39.65 16.137-56.587 16.966-16.937 42.167-26.667 66.11-25.525 11.829 0.564 22.462 3.74 31.036 8.988l53.559-261.432c0-4.914-4.158-8.127-8.126-8.127-0.756 0-1.512 0.189-2.268 0.378L459.77 404.298c-3.59 0.945-5.858 4.158-5.858 7.749l-68.03 293.432h-0.012c-0.094 14.011-6.707 28.668-18.965 40.906-16.965 16.936-42.165 26.666-66.109 25.525-23.943-1.142-42.991-12.982-49.97-31.06-6.978-18.08-0.826-39.65 16.14-56.586 16.965-16.937 42.165-26.667 66.108-25.525 11.523 0.55 21.912 3.577 30.368 8.585l60.234-296.857z"
          fill="#FFFFFF" p-id="5630"></path>
</svg>